<svg width="25" height="24" viewBox="0 0 25 24" fill="none" xmlns="http://www.w3.org/2000/svg">
<path d="M21.25 12L9.25 12M21.25 6L9.25 6M21.25 18L9.25 18M5.25 12C5.25 12.5523 4.80228 13 4.25 13C3.69772 13 3.25 12.5523 3.25 12C3.25 11.4477 3.69772 11 4.25 11C4.80228 11 5.25 11.4477 5.25 12ZM5.25 6C5.25 6.55228 4.80228 7 4.25 7C3.69772 7 3.25 6.55228 3.25 6C3.25 5.44772 3.69772 5 4.25 5C4.80228 5 5.25 5.44772 5.25 6ZM5.25 18C5.25 18.5523 4.80228 19 4.25 19C3.69772 19 3.25 18.5523 3.25 18C3.25 17.4477 3.69772 17 4.25 17C4.80228 17 5.25 17.4477 5.25 18Z" stroke="#121826" stroke-width="2" stroke-linecap="round" stroke-linejoin="round"/>
</svg>
