<svg width="25" height="24" viewBox="0 0 25 24" fill="none" xmlns="http://www.w3.org/2000/svg">
<path d="M21.9604 15.89C21.3242 17.3945 20.3292 18.7202 19.0623 19.7513C17.7954 20.7824 16.2952 21.4874 14.6928 21.8048C13.0905 22.1221 11.4348 22.0422 9.87055 21.5718C8.30627 21.1015 6.88103 20.2551 5.71942 19.1067C4.55782 17.9582 3.69522 16.5428 3.20704 14.984C2.71886 13.4252 2.61996 11.7705 2.919 10.1646C3.21804 8.55879 3.9059 7.05064 4.92245 5.77204C5.939 4.49344 7.25329 3.48333 8.7504 2.83001M21.9892 8.17317C22.3895 9.13964 22.6351 10.1614 22.7184 11.2009C22.739 11.4577 22.7493 11.5861 22.6983 11.7017C22.6557 11.7983 22.5713 11.8898 22.4784 11.9399C22.3672 12 22.2283 12 21.9504 12H13.5504C13.2704 12 13.1304 12 13.0234 11.9455C12.9293 11.8976 12.8528 11.8211 12.8049 11.727C12.7504 11.62 12.7504 11.48 12.7504 11.2V2.80001C12.7504 2.52214 12.7504 2.38321 12.8105 2.27199C12.8607 2.17909 12.9521 2.0947 13.0487 2.0521C13.1644 2.00111 13.2928 2.0114 13.5496 2.03199C14.589 2.11533 15.6108 2.36089 16.5772 2.76121C17.7905 3.26376 18.8929 4.00035 19.8215 4.92894C20.7501 5.85753 21.4867 6.95992 21.9892 8.17317Z" stroke="#121826" stroke-width="2" stroke-linecap="round" stroke-linejoin="round"/>
</svg>
